<?xml version="1.0" encoding="utf-8" ?>
<svg baseProfile="tiny" height="500px" version="1.2" width="500px" xmlns="http://www.w3.org/2000/svg" xmlns:ev="http://www.w3.org/2001/xml-events" xmlns:xlink="http://www.w3.org/1999/xlink"><defs /><path d="M250,250 m0,0 c0,-30 -40,-30 -40,0 c0,30 40,30 40,60 c0,30 -40,30 -40,0" fill="none" stroke="black" stroke-width="4" /><circle cx="250" cy="370" fill="black" r="8" /><path d="M170,250 C100,250 100,150 170,150" fill="none" stroke="black" stroke-width="4" /><path d="M330,250 C400,250 400,150 330,150" fill="none" stroke="black" stroke-width="4" /><line stroke="black" stroke-width="3" x1="250" x2="280.0" y1="190" y2="138.0385" /><line stroke="black" stroke-width="3" x1="250" x2="295.9627" y1="190" y2="151.4327" /><line stroke="black" stroke-width="3" x1="250" x2="306.3816" y1="190" y2="169.4788" /><line stroke="black" stroke-width="3" x1="250" x2="310.0" y1="190" y2="190.0" /><line stroke="black" stroke-width="3" x1="250" x2="306.3816" y1="190" y2="210.5212" /><line stroke="black" stroke-width="3" x1="250" x2="295.9627" y1="190" y2="228.5673" /><line stroke="black" stroke-width="3" x1="250" x2="280.0" y1="190" y2="241.9615" /></svg>